<?xml version="1.0" encoding="UTF-8"?>
<svg id="Layer_2" data-name="Layer 2" xmlns="http://www.w3.org/2000/svg" viewBox="0 0 180 180">
  <defs>
    <style>
      .cls-1 {
        fill: #404040;
      }
    </style>
  </defs>
  <g id="Layer_1-2" data-name="Layer 1">
    <path class="cls-1" d="M0,0v180h180V0H0ZM148,55h-3.12c-2.92,0-3.88,2.3-3.88,3.81v43.76l-.08.13c-.14,14.42-6.98,25.86-19.7,32.99-10.05,5.64-21.3,7.3-25.84,7.3h-11.29c-11.8,0-45.08-7.79-45.08-40.87v-43.32c0-1.51-1.34-3.81-4.26-3.81h-2.74v-17h2.74c13.56,0,21.26,9.51,21.26,18.96v42.7c0,9.86,3.95,16.89,12.09,20.9,7.82,3.85,16.31,3.55,16.5,3.54h.13s10.2,0,10.2,0c.03,0,.27,0,.62,0,4.74,0,28.46-1.18,28.46-24.45v-42.7c0-9.45,7.32-18.96,20.88-18.96h3.12v17Z"/>
  </g>
</svg>