<?xml version="1.0" encoding="UTF-8"?>
<svg id="Layer_2" data-name="Layer 2" xmlns="http://www.w3.org/2000/svg" viewBox="0 0 1194 113.37">
  <defs>
    <style>
      .cls-1 {
        fill: #404040;
      }
    </style>
  </defs>
  <g id="Layer_1-2" data-name="Layer 1">
    <g>
      <path class="cls-1" d="M326.64,91.2l-2.34,2.57c-.79.87-1.57,1.31-2.33,1.31-.6,0-1.04-.27-1.17-.37l-20.28-25.53c18.83-5.29,29.79-19.34,28.17-36.67-1.47-15.72-14.08-32.37-35.41-32.37h-79.28v111h18v-37.43c0-3.02.12-3.57,3.03-3.57h43.18l29.85,37.3.18.21.57.18c4.05,3.48,9.19,5.55,15.19,5.55h0c5,0,9.57-2,13.08-5.79l1.6-1.92-12.05-14.46ZM234.03,52.14c-.93,0-2.03.52-2.03.66V18.14h61.22c8.58,0,17.81,5.52,17.87,17.01.04,8.22-5.47,16.99-17.89,16.99h-59.17Z"/>
      <path class="cls-1" d="M536.36,54.15c8.4-7.8,11.8-19.09,8.9-30.27-3.36-12.94-14.43-22.08-28.18-23.85l-84.07-.02v111.14h84.52c14.06-1.82,25.41-11.72,28.91-25.22,3.05-11.75-.71-23.38-10.07-31.77ZM451,18.14h64.7c9.7,1,13.08,7.96,13.02,13.62-.06,6.14-4.1,12.38-12.99,13.38h-61.1c-.93,0-2.63.11-3.63.25v-27.25ZM515.72,93.14h-64.72v-26.85c0-3.02,1.72-3.15,4.63-3.15h60.05c7.11,0,14.18,5.85,14.08,15.18-.07,6.73-4.45,13.82-14.05,14.82Z"/>
      <path class="cls-1" d="M99,21v46c0,25.07-25.49,26.34-30.59,26.34-.38,0-.61,0-.64,0h-10.97s-.13,0-.13,0c-.21,0-9.79.33-18.22-3.82-8.77-4.32-13.46-11.9-13.46-22.52V21C25,10.82,17.58.14,2.96.14H0v18h2.96c3.15,0,4.04,3.23,4.04,4.86v46.67c0,35.64,36.42,43.48,49.13,43.48h12.17c4.89,0,17.01-1.51,27.84-7.59,13.7-7.69,20.85-19.87,20.99-35.41h-.13s0-.48,0-.48V23c0-1.63,1.48-4.86,4.63-4.86h2.37V.14h-2.37c-14.62,0-22.63,10.68-22.63,20.86Z"/>
      <path class="cls-1" d="M881,92.29v-46c0-25.07,25.79-26.34,30.89-26.34.38,0,.76,0,.79,0h11.04s.16,0,.16,0c.21,0,9.52-.33,17.94,3.82,8.77,4.32,13.18,11.9,13.18,22.52v46c0,10.18,8.02,20.85,22.63,20.85h2.37v-18h-2.37c-3.15,0-4.63-3.22-4.63-4.85v-46.67C973,7.98,937.18.14,924.47.14h-12.17c-4.89,0-17.01,1.51-27.84,7.59-13.7,7.69-21.14,19.41-21.29,35.41h-.16v47.15c0,1.63-.89,4.85-4.04,4.85h-2.96v18h2.96c14.62,0,22.04-10.67,22.04-20.85Z"/>
      <path class="cls-1" d="M763.63,95.14c-3.15,0-4.63-3.22-4.63-4.85v-46.67C759,7.98,723.18.14,710.47.14h-12.17c-4.89,0-17.01,1.51-27.84,7.59-13.7,7.69-21.14,19.41-21.29,35.41h-.16v47.15c0,1.63-.89,4.85-4.04,4.85h-2.96v18h2.96c14.62,0,22.04-10.67,22.04-20.85v-20.67c1-2.55,5.59-5.48,11.26-5.48h52.51c5.68,0,9.22,2.86,10.22,5.41v20.74c0,10.18,8.02,20.85,22.63,20.85h2.37v-18h-2.37ZM741,50.81c-3-1.48-5.29-2.67-9.22-2.67h-64.78v-1.85c0-25.07,25.79-26.34,30.89-26.34.38,0,.76,0,.79,0h11.04s.16,0,.16,0c.21,0,9.52-.33,17.94,3.82,8.77,4.32,13.18,11.9,13.18,22.52v4.52Z"/>
      <path class="cls-1" d="M1192.11,95.14c-3.15,0-5.11-3.22-5.11-4.85v-46.67c0-35.64-35.34-43.49-48.06-43.49h-12.17c-4.89,0-17.01,1.51-27.84,7.59-13.7,7.69-21.38,19.41-21.53,35.41h-.4v47.15c0,1.63-.41,4.85-3.56,4.85h-3.44v18h3.44c14.62,0,21.56-10.67,21.56-20.85v-20.67c1-2.55,6.07-5.48,11.74-5.48h52.51c5.68,0,8.75,2.86,9.75,5.41v20.74c0,10.18,8.5,20.85,23.11,20.85h1.89v-18h-1.89ZM1169,50.81c-3-1.48-4.81-2.67-8.75-2.67h-65.25v-1.85c0-25.07,26.02-26.34,31.13-26.34.38,0,.88,0,.91,0h11.1s.2,0,.2,0c.21,0,9.29-.33,17.71,3.82,8.77,4.32,12.95,11.9,12.95,22.52v4.52Z"/>
    </g>
  </g>
</svg>